PathFileType	4	(X/Y/Z)	TVC_41_BWA_02_walk_RCNL2025.trc
DataRate	CameraRate	NumFrames	NumMarkers	Units	OrigDataRate	OrigDataStartFrame	OrigNumFrames
100	100	6	27	mm	100	399	531
Frame#	Time	R_Shoulder			L_Shoulder			C7			J_Notch			R_Elbow			L_Elbow			R_Wrist			L_Wrist			R_Asis			L_Asis			R_Psis			L_Psis			Sacral			Thoracic			Sternum			R_Thigh_Lateral			R_Knee_Lateral			R_Shank_Lateral			R_Ankle_Lateral			R_Heel			R_Toe			L_Thigh_Lateral			L_Knee_Lateral			L_Shank_Lateral			L_Ankle_Lateral			L_Heel			L_Toe		
		X1	Y1	Z1	X2	Y2	Z2	X3	Y3	Z3	X4	Y4	Z4	X5	Y5	Z5	X6	Y6	Z6	X7	Y7	Z7	X8	Y8	Z8	X9	Y9	Z9	X10	Y10	Z10	X11	Y11	Z11	X12	Y12	Z12	X13	Y13	Z13	X14	Y14	Z14	X15	Y15	Z15	X16	Y16	Z16	X17	Y17	Z17	X18	Y18	Z18	X19	Y19	Z19	X20	Y20	Z20	X21	Y21	Z21	X22	Y22	Z22	X23	Y23	Z23	X24	Y24	Z24	X25	Y25	Z25	X26	Y26	Z26	X27	Y27	Z27
399	3.98000000	-637.682739	1253.271606	-35.445473	-560.432556	1281.362427	-361.345551	-646.650818	1326.751953	-201.386856	-530.800354	1216.688354	-179.002747	-756.786072	981.386353	-37.204811	-591.678101	1000.419189	-462.035126	-558.818970	916.334656	-35.333504	-454.965454	845.082153	-481.912842	-606.123352	892.914917	-79.574562	-549.403809	858.760559	-315.197449	-748.934265	892.586670	-188.351807	-734.510681	877.591125	-274.654480	-741.722473	885.088898	-231.503143	-698.291870	1037.121460	-245.876602	-509.348694	1035.314453	-197.298431	-639.541077	676.105774	13.105718	-654.807617	437.751068	-53.604408	-741.837952	327.274200	3.143307	-799.797668	127.379021	-64.894173	-839.409546	118.673050	-123.831978	-717.708740	50.085884	-37.344067	-626.457153	585.066895	-398.872345	-618.660095	401.866119	-296.052673	-648.187988	260.908234	-345.779724	-695.834656	63.623444	-264.069672	-743.367249	48.055714	-225.866058	-576.187317	37.432137	-244.181229
400	3.99000000	-637.375854	1253.396729	-36.529686	-559.278870	1281.074951	-362.258362	-645.882324	1326.661499	-202.606079	-530.096741	1216.616333	-179.728226	-756.256531	981.457458	-38.341881	-590.510620	1000.135132	-462.860748	-557.519714	916.963104	-36.466554	-454.220917	844.428925	-482.786880	-606.151428	892.868164	-80.274673	-548.405457	858.486816	-315.536591	-748.459778	892.630615	-189.774017	-733.599976	877.613586	-276.004028	-741.029877	885.122101	-232.889023	-697.495605	1037.063965	-246.993179	-508.707092	1035.200562	-197.745422	-640.437561	676.260925	12.494805	-655.047363	437.846008	-53.930916	-742.295166	327.384583	2.438768	-799.580322	127.287331	-65.660057	-838.872742	118.503212	-124.779510	-717.562256	50.115368	-37.478741	-625.082642	584.843384	-399.441711	-618.282471	401.761230	-296.375214	-647.685913	260.786194	-346.044678	-695.766052	63.665958	-264.390106	-743.381348	48.075325	-226.298767	-576.173706	37.397503	-244.160278
401	4.00000000	-637.083679	1253.540527	-37.597530	-558.066650	1280.765625	-363.131989	-645.085388	1326.583252	-203.812317	-529.395569	1216.533569	-180.416428	-755.859436	981.597168	-39.477962	-589.277222	999.827881	-463.642883	-556.523682	917.516083	-37.476636	-453.458466	843.705902	-483.588715	-606.262146	892.816467	-80.948616	-547.473511	858.205994	-315.853119	-748.053894	892.701843	-191.184845	-732.755127	877.659058	-277.340302	-740.404510	885.180450	-234.262573	-696.733093	1037.028320	-248.091309	-508.101654	1035.070312	-198.139786	-641.426819	676.419128	11.902601	-655.338684	437.941650	-54.231476	-742.759155	327.487823	1.780080	-799.396667	127.189178	-66.376099	-838.380188	118.334793	-125.655975	-717.444092	50.126213	-37.603207	-623.786133	584.622620	-400.000275	-617.954651	401.669556	-296.694855	-647.225708	260.667053	-346.301971	-695.709412	63.714954	-264.705017	-743.369019	48.079960	-226.698685	-576.161438	37.364464	-244.138214
402	4.01000000	-636.804688	1253.701050	-38.648197	-556.803833	1280.436768	-363.966888	-644.263672	1326.517456	-205.003174	-528.699097	1216.440430	-181.070099	-755.596069	981.804871	-40.607952	-587.985291	999.499817	-464.382660	-555.872833	917.967041	-38.342056	-452.671219	842.927582	-484.318085	-606.446289	892.760437	-81.599022	-546.610657	857.920837	-316.154663	-747.713196	892.798218	-192.577332	-731.977844	877.724976	-278.656677	-739.845520	885.261597	-235.617004	-696.006165	1037.013184	-249.169373	-507.532806	1034.925171	-198.487244	-642.495300	676.579163	11.326407	-655.674072	438.037781	-54.510658	-743.230225	327.584900	1.161460	-799.242126	127.085190	-67.046722	-837.926147	118.167183	-126.470161	-717.350830	50.121849	-37.719040	-622.583008	584.404602	-400.546814	-617.673645	401.590332	-297.011780	-646.808777	260.550323	-346.551270	-695.664001	63.767006	-265.005737	-743.331482	48.070797	-227.058411	-576.150391	37.334400	-244.114075
403	4.02000000	-636.537354	1253.876221	-39.680798	-555.499084	1280.090454	-364.763855	-643.421143	1326.463867	-206.176285	-528.009888	1216.337402	-181.692047	-755.465149	982.078735	-41.726315	-586.643616	999.153442	-465.081207	-555.592834	918.295898	-39.047824	-451.853653	842.108429	-484.974579	-606.694519	892.700684	-82.228424	-545.819092	857.633911	-316.448090	-747.433960	892.917419	-193.944794	-731.269165	877.808472	-279.946777	-739.351562	885.362946	-236.945786	-695.316589	1037.017090	-250.225616	-507.000763	1034.766235	-198.793594	-643.630005	676.739136	10.763493	-656.047852	438.134094	-54.773277	-743.711243	327.676544	0.576187	-799.112671	126.975273	-67.677246	-837.505859	117.998634	-127.232208	-717.279175	50.105656	-37.828037	-621.486938	584.189514	-401.080139	-617.436279	401.522369	-297.325836	-646.435852	260.435608	-346.792206	-695.628906	63.818604	-265.284180	-743.272644	48.050278	-227.373138	-576.140503	37.308300	-244.087296
404	4.03000000	-636.280090	1254.064209	-40.694420	-554.162048	1279.729248	-365.523956	-642.562073	1326.422363	-207.329346	-527.330627	1216.225220	-182.285202	-755.462646	982.415771	-42.827335	-585.262390	998.791138	-465.739502	-555.690460	918.490662	-39.586680	-451.001755	841.262939	-485.557877	-606.997681	892.637817	-82.839195	-545.100098	857.347595	-316.739319	-747.212463	893.057190	-195.280975	-730.629761	877.906860	-281.204712	-738.921112	885.482025	-238.242844	-694.665955	1037.038208	-251.258255	-506.505737	1034.594971	-199.064667	-644.818359	676.896973	10.211159	-656.456299	438.230286	-55.024132	-744.206726	327.763367	0.017056	-799.005127	126.858849	-68.273476	-837.115051	117.826653	-127.952866	-717.226257	50.080723	-37.932110	-620.508972	583.977661	-401.599274	-617.239502	401.464233	-297.636658	-646.107239	260.322571	-347.024445	-695.603027	63.866508	-265.533478	-743.198303	48.021656	-227.640427	-576.131653	37.286739	-244.057678
